<?xml version="1.0" encoding="utf-8"?>
<!-- Generator: Adobe Illustrator 24.3.0, SVG Export Plug-In . SVG Version: 6.00 Build 0)  -->
<svg xmlns="http://www.w3.org/2000/svg" xmlns:xlink="http://www.w3.org/1999/xlink" version="1.1" id="Calque_1" x="0px" y="0px" viewBox="0 0 512 512" enable-background="new 0 0 512 512" xml:space="preserve" width="" height="">
<g id="Mail">
</g>
<g id="Open_Mail">
</g>
<g id="Mail_Attachmet">
</g>
<g id="Mails">
</g>
<g id="Trash">
</g>
<g id="Trash_Full">
</g>
<g id="Preferences_1">
</g>
<g id="Preferences_2">
</g>
<g id="Mouse">
</g>
<g id="Computer">
</g>
<g id="Notebook">
</g>
<g id="Mobile_Phone">
</g>
<g id="Print">
</g>
<g id="Calculator">
</g>
<g id="Tag">
</g>
<g id="Paperclip">
</g>
<g id="Heart">
</g>
<g id="Lock">
</g>
<g id="Lock_Open">
</g>
<g id="Key_1">
</g>
<g id="Star">
</g>
<g id="Add">
</g>
<g id="Remove">
</g>
<g id="Error">
</g>
<g id="Check_1">
</g>
<g id="Time">
</g>
<g id="Question_Mark">
</g>
<g id="Error_Mark">
</g>
<g id="Sand-Glass">
</g>
<g id="Battery_Full">
</g>
<g id="Battery_Charge">
</g>
<g id="Battery_Half">
</g>
<g id="Battery_Low">
</g>
<g id="No_Battery">
</g>
<g id="Key_2">
</g>
<path d="M483.9,35.5l-7.3-7.3C458.4,10,434.3,0,408.6,0c-25.7,0-49.8,10-67.9,28.1l-56.4,56.4c-35.9,35.9-37,93.2-4,130.8  l-64.5,65.1c-17.6-15.5-39.6-24.3-63.3-24.3c-25.7,0-49.7,10-67.9,28.1l-56.4,56.4c-37.4,37.4-37.4,98.3,0,135.8l7.3,7.3  C53.6,502,77.7,512,103.4,512c25.6,0,49.8-10,67.9-28.1l56.4-56.4c36.2-36.2,37-94.2,3.2-131.8l64.3-64.9  c17.7,16.1,40.2,25.2,64.3,25.2c25.6,0,49.7-10,67.9-28.1l56.4-56.4C521.3,133.8,521.3,72.9,483.9,35.5z M212.6,412.3l-56.4,56.4  c-28.2,28.2-77.4,28.2-105.6,0l-7.3-7.3c-29.1-29.1-29.1-76.5,0-105.6l56.4-56.4c14.1-14.1,32.9-21.9,52.8-21.9  c18,0,34.8,6.6,48.3,18.2l-48.1,48.6c-4.1,4.2-4.1,10.9,0.1,15.1c2.1,2.1,4.8,3.1,7.5,3.1c2.8,0,5.5-1.1,7.6-3.2l48.1-48.5  C241.3,340,240.4,384.4,212.6,412.3z M468.8,156.1l-56.4,56.4c-27.1,27.1-73.4,27.9-102,2.9l47.8-48.2c4.1-4.2,4.1-10.9-0.1-15.1  c-4.1-4.2-11-4.1-15.1,0.1l-47.6,48c-24.6-29.3-23.5-73,4.1-100.6l56.4-56.4c14.1-14.1,32.9-21.9,52.8-21.9c20,0,38.7,7.8,52.8,21.9  l7.3,7.3C497.9,79.6,497.9,127,468.8,156.1z"/>
<g id="Brake_Link">
</g>
<g id="Pencil">
</g>
<g id="At">
</g>
<g id="Reply">
</g>
<g id="Accessible">
</g>
<g id="Up_Arrow">
</g>
<g id="Brush">
</g>
<g id="Design_Mug">
</g>
<g id="Design">
</g>
<g id="Server">
</g>
<g id="Database">
</g>
<g id="Save">
</g>
<g id="Female">
</g>
<g id="Male">
</g>
<g id="Book">
</g>
<g id="Power">
</g>
<g id="Reload">
</g>
<g id="Map">
</g>
<g id="Loction_1">
</g>
<g id="Location_2">
</g>
<g id="Globe">
</g>
<g id="Suitcase">
</g>
<g id="Callendar">
</g>
<g id="Cloud_Off">
</g>
<g id="File_1">
</g>
<g id="File_2">
</g>
<g id="Folder">
</g>
<g id="Open_Folder">
</g>
<g id="Cloud">
</g>
<g id="Upload_Cloud">
</g>
<g id="Download_Cloud">
</g>
<g id="Eye">
</g>
<g id="Invisible">
</g>
<g id="Assignment">
</g>
<g id="Note_Book">
</g>
<g id="Webpage">
</g>
<g id="Mailbox">
</g>
<g id="Drive">
</g>
<g id="Disc">
</g>
<g id="Wifi_1">
</g>
<g id="Wifi_2">
</g>
<g id="Archive">
</g>
<g id="Archive_File">
</g>
<g id="News">
</g>
<g id="Home">
</g>
<g id="Collaboration">
</g>
<g id="Announcement">
</g>
<g id="Watch">
</g>
<g id="Clock">
</g>
<g id="Volume">
</g>
<g id="Mute">
</g>
<g id="Hand">
</g>
<g id="Layers">
</g>
<g id="Bell">
</g>
<g id="Speach_Bubble">
</g>
<g id="Speach_Bubbles">
</g>
<g id="Zoom_In">
</g>
<g id="Zoom_Out">
</g>
<g id="Search">
</g>
<g id="Back_Arrow">
</g>
<g id="Close">
</g>
<g id="Check_2">
</g>
<g id="Left_Arrow_2">
</g>
<g id="Right_Arrow_2">
</g>
<desc>
	Lien;Link;connecter;connect;nexus;nexus;undergird;undergird;attaché;tied;cravate;tie;liaison;liaison;connexion;connection;corrélation;correlation;liés;related;rejoindre;join;causal;causal;concaténer;concatenate;implication;involvement;combiner;combine;corrélatif;correlative;socket;socket;connecté;connected;interrelations;interrelationship;interconnecter;interconnect;concaténation;concatenation;contact;contact;relation;relationship;conjoin;conjoin;amitié;friendship;lien;bond;lié;linked;rapporter;relate;unir;unite;associé;associate;congruence;congruence;De base;Basic;Courrier;Mail;Ouvrir le courrier;Open Mail;Mail Attachmet;Mail Attachmet;Courriers;Mails;Poubelle;Trash;Corbeille pleine;Trash Full;Préférences;Preferences;Souris;Mouse;Ordinateur;Computer;Carnet;Notebook;Téléphone portable;Mobile Phone;Impression;Print;Calculatrice;Calculator;Marque;Tag;Trombone;Paperclip;Cœur;Heart;Fermer à clé;Lock;Verrouiller ouvert;Lock Open;Clé;Key;Étoile;Star;Ajouter;Add;Retirer;Remove;Erreur;Error;Vérifier;Check;Temps;Time;Point d&amp;#39;interrogation;Question Mark;Marque d&amp;#39;erreur;Error Mark;Sablier;Sand-Glass;Batterie pleine;Battery Full;Charge de la batterie;Battery Charge;Batterie à moitié;Battery Half;Batterie faible;Battery Low;Pas de batterie;No Battery;Lien de frein;Brake Link;Crayon;Pencil;À;At;Répondre;Reply;Accessible;Accessible;Flèche vers le haut;Up Arrow;Brosse;Brush;Mug design;Design Mug;Conception;Design;Serveur;Server;Base de données;Database;sauver;Save;Femme;Female;Masculin;Male;Livre;Book;Puissance;Power;Recharger;Reload;Carte;Map;Loction;Loction;Emplacement;Location;Globe;Globe;Valise;Suitcase;Callendar;Callendar;Cloud désactivé;Cloud Off;Fichier;File;Dossier;Folder;Dossier ouvert;Open Folder;Nuage;Cloud;Télécharger Cloud;Upload Cloud;Télécharger Cloud;Download Cloud;Œil;Eye;Invisible;Invisible;Affectation;Assignment;Carnet;Note Book;Page Web;Webpage;Boites aux lettres;Mailbox;Conduire;Drive;Disque;Disc;Wifi;Wifi;Archiver;Archive;Fichier d&amp;#39;archive;Archive File;Nouvelles;News;Accueil;Home;Collaboration;Collaboration;Annonce;Announcement;Regarder;Watch;L&amp;#39;horloge;Clock;Le volume;Volume;Muet;Mute;Main;Hand;Couches;Layers;Cloche;Bell;Bulle de parole;Speach Bubble;Bulles de parole;Speach Bubbles;Agrandir;Zoom In;Dézoomer;Zoom Out;Chercher;Search;Flèche arrière;Back Arrow;Fermer;Close;Flèche gauche;Left Arrow;Flèche droite;Right Arrow
	</desc>
<rect fill-opacity="0" width="512" height="512"/>
</svg>
